<svg xmlns="http://www.w3.org/2000/svg" width="375" viewBox="0 0 375 375" height="375" version="1.0"><defs><clipPath id="a"><path d="M 46 49 L 340 49 L 340 330 L 46 330 Z M 46 49"/></clipPath><clipPath id="b"><path d="M 330.507812 337.484375 L 46.027344 328.066406 L 55.386719 45.242188 L 339.867188 54.65625 Z M 330.507812 337.484375"/></clipPath><clipPath id="c"><path d="M 330.507812 337.484375 L 46.027344 328.066406 L 55.386719 45.242188 L 339.867188 54.65625 Z M 330.507812 337.484375"/></clipPath><clipPath id="d"><path d="M 0 85 L 345.867188 85 L 345.867188 307 L 0 307 Z M 0 85"/></clipPath><clipPath id="e"><path d="M 294 13.53125 L 375 13.53125 L 375 144 L 294 144 Z M 294 13.53125"/></clipPath><clipPath id="f"><path d="M 244.394531 162 L 301 162 L 301 173.28125 L 244.394531 173.28125 Z M 244.394531 162"/></clipPath></defs><path fill="#FFF" d="M-37.5 -37.5H412.5V412.5H-37.5z"/><path fill="#FFF" d="M-37.5 -37.5H412.5V412.5H-37.5z"/><path fill="#FFF" d="M-37.5 -37.5H412.5V412.5H-37.5z"/><g clip-path="url(#a)"><g clip-path="url(#b)"><g clip-path="url(#c)"><path fill="#9D97C4" d="M 213.574219 51.5 L 222.574219 52.136719 C 225.628906 52.410156 228.519531 52.503906 231.574219 52.777344 L 231.746094 52.78125 L 233.785156 52.851562 L 242.277344 53.472656 C 245.332031 53.742188 248.214844 54.007812 251.101562 54.277344 C 256.53125 54.796875 262.128906 55.324219 267.734375 55.679688 C 271.640625 55.976562 275.542969 56.277344 279.449219 56.578125 L 284.035156 56.898438 C 287.597656 57.1875 291.164062 57.476562 294.730469 57.765625 C 298.292969 58.054688 301.519531 58.332031 304.914062 58.613281 C 307.628906 58.875 310.519531 58.96875 313.238281 59.058594 C 315.960938 59.148438 318.339844 59.226562 321.058594 59.320312 C 323.78125 59.410156 326.324219 59.664062 329.046875 59.753906 L 332.949219 60.054688 C 333.289062 60.0625 333.800781 60.082031 334.140625 60.09375 L 334.3125 60.097656 C 335.160156 60.125 335.839844 60.148438 336.519531 60.171875 C 337.03125 60.1875 337.371094 60.199219 337.882812 60.214844 C 338.890625 60.589844 339.542969 61.464844 339.507812 62.484375 C 339.300781 63.671875 338.75 64.847656 338.035156 65.847656 C 337.320312 66.84375 336.785156 67.679688 336.070312 68.679688 C 333.570312 72.175781 330.90625 75.496094 328.410156 78.996094 C 327.871094 79.828125 327.332031 80.664062 326.789062 81.667969 C 326.601562 82.171875 326.421875 82.507812 326.234375 83.011719 C 326.046875 83.519531 325.855469 84.195312 325.835938 84.703125 C 325.820312 85.214844 325.621094 86.0625 325.597656 86.742188 C 325.566406 87.765625 325.527344 88.957031 325.664062 89.984375 C 325.914062 92.71875 326.167969 95.285156 326.253906 97.84375 C 326.332031 100.574219 326.066406 103.464844 325.636719 106.175781 C 325.378906 108.894531 324.605469 111.597656 323.835938 114.300781 C 322.730469 116.820312 321.46875 118.992188 319.863281 121.15625 C 318.441406 122.984375 317.03125 124.472656 315.28125 125.949219 C 313.53125 127.425781 311.777344 128.902344 310.035156 130.207031 L 310.210938 130.042969 C 308.105469 131.847656 306.175781 133.660156 304.40625 135.644531 C 303.347656 136.804688 302.289062 137.960938 301.390625 139.296875 C 301.035156 139.796875 300.671875 140.464844 300.316406 140.964844 C 299.765625 142.140625 299.210938 143.484375 299 144.671875 C 298.804688 145.515625 298.773438 146.367188 298.746094 147.21875 C 298.71875 148.070312 298.691406 148.921875 298.664062 149.773438 C 298.652344 150.113281 298.632812 150.625 298.789062 151.140625 C 298.921875 152.167969 299.398438 153.207031 299.535156 154.234375 C 299.671875 155.261719 300.136719 156.640625 300.433594 158.015625 C 301.027344 160.589844 301.277344 163.328125 301.019531 166.046875 C 300.757812 168.765625 300.164062 171.300781 299.226562 173.828125 C 298.679688 175.003906 298.125 176.347656 297.402344 177.515625 C 296.683594 178.6875 295.96875 179.6875 295.25 180.855469 C 293.453125 183.695312 291.332031 186.179688 288.871094 188.484375 C 287.640625 189.636719 286.417969 190.621094 285.1875 191.773438 C 283.957031 192.925781 283.074219 193.917969 282.015625 195.078125 C 281.480469 195.742188 280.949219 196.40625 280.410156 197.238281 C 280.054688 197.738281 279.691406 198.410156 279.328125 199.078125 C 278.972656 199.578125 278.78125 200.253906 278.585938 200.929688 C 278.394531 201.605469 278.203125 202.28125 278.007812 202.957031 C 277.816406 203.632812 277.804688 203.972656 277.792969 204.3125 C 277.78125 204.652344 277.753906 205.503906 277.738281 206.015625 C 277.722656 206.527344 277.878906 206.871094 277.867188 207.214844 C 277.855469 207.554688 278.015625 207.898438 278.167969 208.417969 C 278.320312 208.933594 278.480469 209.277344 278.804688 209.800781 C 280.25 212.40625 281.882812 214.503906 282.824219 216.921875 C 283.765625 219.339844 284.359375 221.917969 284.441406 224.648438 C 284.519531 227.378906 284.089844 230.089844 283.320312 232.792969 C 282.550781 235.496094 281.613281 238.019531 280.34375 240.363281 C 279.613281 241.875 278.542969 243.375 277.644531 244.878906 C 276.570312 246.375 275.332031 247.871094 274.097656 249.191406 C 272.691406 250.507812 271.289062 251.65625 269.890625 252.804688 C 268.496094 253.78125 267.273438 254.761719 266.042969 255.914062 C 264.988281 256.902344 263.9375 257.890625 262.875 259.046875 C 262.171875 259.707031 261.636719 260.542969 261.101562 261.207031 C 260.738281 261.875 260.382812 262.375 260.019531 263.046875 C 259.664062 263.542969 259.472656 264.21875 259.285156 264.726562 C 259.097656 265.230469 258.910156 265.734375 258.886719 266.417969 C 258.863281 267.097656 258.859375 267.269531 258.679688 267.601562 C 258.496094 267.9375 258.648438 268.453125 258.632812 268.964844 C 258.617188 269.476562 258.78125 269.652344 258.769531 269.992188 C 258.757812 270.332031 258.910156 270.851562 259.070312 271.195312 C 259.539062 272.40625 259.847656 273.4375 260.316406 274.644531 C 260.789062 275.855469 261.257812 277.0625 261.730469 278.273438 L 261.722656 278.441406 C 262.691406 280.007812 263.492188 281.570312 264.285156 283.300781 C 264.597656 284.164062 264.90625 285.195312 265.214844 286.058594 C 265.359375 286.914062 265.5 287.773438 265.640625 288.628906 C 265.75 290.507812 265.859375 292.386719 265.625 294.253906 C 265.210938 296.457031 264.804688 298.488281 263.886719 300.503906 C 263.503906 301.855469 262.941406 303.371094 262.214844 304.710938 L 262.039062 304.875 C 262.027344 305.214844 262.023438 305.386719 261.84375 305.722656 C 260.027344 309.070312 257.882812 312.238281 255.398438 315.222656 C 252.933594 317.699219 250.449219 320.855469 247.800781 323.664062 C 247.449219 323.996094 247.273438 324.160156 246.921875 324.488281 C 246.570312 324.820312 246.226562 324.976562 245.878906 325.136719 C 245.523438 325.636719 245.007812 325.789062 244.492188 325.941406 C 243.636719 326.085938 242.617188 326.050781 241.589844 326.1875 L 238.683594 326.601562 C 236.800781 326.882812 234.925781 326.988281 233.050781 327.097656 C 228.957031 327.304688 224.707031 327.164062 220.621094 327.199219 C 216.535156 327.234375 212.109375 327.257812 207.847656 327.457031 L 208.1875 327.46875 C 199.488281 328.03125 190.792969 328.425781 182.273438 328.65625 C 177.679688 328.675781 173.410156 329.046875 169.148438 329.246094 C 164.886719 329.445312 160.625 329.644531 156.371094 329.675781 C 152.113281 329.703125 147.855469 329.734375 143.613281 329.421875 C 139.367188 329.113281 134.953125 328.796875 130.703125 328.65625 C 126.117188 328.332031 121.34375 328.515625 116.75 328.535156 C 112.832031 328.574219 108.746094 328.609375 104.835938 328.480469 C 102.453125 328.402344 100.246094 328.328125 97.863281 328.25 C 95.484375 328.171875 93.4375 328.273438 91.226562 328.199219 C 86.800781 328.222656 82.546875 328.253906 78.125 328.109375 C 73.703125 327.960938 69.441406 328.160156 65.1875 328.191406 L 58.71875 328.148438 C 56.507812 328.074219 54.292969 328.171875 52.082031 328.097656 C 51.226562 328.238281 50.210938 328.035156 49.375 327.667969 C 49.039062 327.484375 48.710938 327.132812 48.546875 326.957031 C 48.207031 326.945312 48.042969 326.769531 47.707031 326.589844 C 46.535156 326.039062 46.238281 324.664062 46.789062 323.492188 C 48.414062 320.648438 50.203125 317.976562 52 315.140625 C 53.441406 312.800781 54.882812 310.292969 56.160156 307.777344 C 56.527344 306.9375 57.070312 305.933594 57.273438 304.917969 C 57.472656 304.070312 57.671875 303.226562 58.035156 302.554688 C 58.238281 301.539062 58.449219 300.351562 58.488281 299.160156 C 58.503906 298.648438 58.519531 298.140625 58.539062 297.628906 C 58.394531 296.769531 58.417969 296.089844 58.277344 295.234375 C 57.976562 294.03125 57.667969 292.996094 57.367188 291.792969 C 57.050781 291.101562 56.738281 290.238281 56.421875 289.546875 C 55.304688 287.292969 54.019531 285.035156 53.078125 282.617188 C 52.613281 281.238281 52.148438 279.859375 52.023438 278.492188 C 51.726562 277.117188 51.777344 275.585938 51.824219 274.222656 C 51.867188 272.859375 52.082031 271.503906 52.46875 270.152344 C 52.683594 268.796875 53.070312 267.445312 53.625 266.101562 C 54.570312 263.234375 55.84375 260.71875 57.460938 258.214844 C 58.886719 256.21875 60.304688 254.558594 61.894531 252.738281 C 63.488281 250.914062 65.425781 248.933594 67.195312 246.945312 C 67.71875 246.453125 68.253906 245.789062 68.785156 245.125 C 69.320312 244.460938 69.851562 243.796875 70.390625 242.960938 C 71.289062 241.457031 72.183594 240.125 73.09375 238.449219 C 73.640625 237.273438 74.191406 236.097656 74.570312 234.917969 C 74.949219 233.738281 75.328125 232.554688 75.539062 231.371094 C 75.75 230.183594 75.769531 229.503906 75.976562 228.488281 C 76.179688 227.472656 76.027344 226.953125 76.054688 226.101562 C 75.917969 225.074219 75.953125 224.054688 75.644531 223.019531 C 75.359375 221.308594 74.90625 219.585938 74.453125 217.867188 C 74.003906 215.976562 73.722656 214.265625 73.613281 212.386719 C 73.507812 210.507812 73.402344 208.457031 73.636719 206.589844 C 73.867188 204.722656 74.09375 203.027344 74.832031 201.34375 C 75.214844 199.996094 75.765625 198.820312 76.316406 197.644531 C 76.863281 196.46875 77.582031 195.300781 78.304688 194.128906 C 79.191406 192.96875 79.914062 191.796875 80.972656 190.640625 C 81.863281 189.476562 82.75 188.3125 83.804688 187.324219 C 85.402344 185.332031 87.164062 183.515625 88.9375 181.355469 C 90.710938 179.199219 92.308594 177.207031 93.742188 175.039062 C 93.925781 174.703125 94.277344 174.375 94.464844 173.871094 C 94.996094 173.203125 95.535156 172.371094 95.894531 171.699219 C 96.257812 171.03125 96.804688 170.027344 97.339844 169.191406 C 97.878906 168.355469 98.265625 167.007812 98.8125 165.832031 C 99.011719 164.984375 99.210938 164.140625 99.402344 163.464844 C 99.59375 162.789062 99.625 161.9375 99.652344 161.085938 C 99.691406 159.894531 99.730469 158.703125 99.601562 157.503906 C 99.507812 155.113281 99.078125 152.714844 98.992188 150.15625 C 98.90625 147.59375 98.984375 145.210938 99.410156 142.667969 C 99.675781 139.777344 100.453125 136.90625 101.734375 134.222656 C 102.289062 132.875 103.007812 131.707031 103.726562 130.539062 C 104.617188 129.375 105.507812 128.210938 106.390625 127.214844 C 109.925781 123.242188 114.113281 120.140625 117.648438 116.167969 C 118.355469 115.339844 119.066406 114.511719 119.605469 113.675781 C 120.5 112.34375 121.222656 111.003906 121.957031 109.492188 C 122.316406 108.824219 122.511719 108.148438 122.703125 107.472656 C 122.894531 106.796875 123.269531 105.785156 123.472656 104.769531 C 123.488281 104.257812 123.675781 103.753906 123.695312 103.242188 C 123.714844 102.5625 123.734375 102.050781 123.753906 101.371094 C 123.613281 100.511719 123.640625 99.660156 123.496094 98.976562 C 122.734375 96.222656 122.316406 93.480469 122.070312 90.574219 C 122.121094 89.042969 121.996094 87.675781 122.21875 86.148438 C 122.261719 84.785156 122.484375 83.257812 122.699219 81.902344 C 122.890625 81.226562 123.082031 80.550781 123.277344 79.875 C 123.644531 79.035156 123.835938 78.359375 124.199219 77.691406 C 124.925781 76.351562 125.644531 75.179688 126.363281 74.011719 C 128.140625 71.683594 129.917969 69.527344 132.03125 67.382812 C 134.847656 64.578125 137.820312 62.117188 140.960938 59.835938 C 142.53125 58.695312 144.09375 57.722656 145.664062 56.582031 L 148.277344 54.792969 C 148.796875 54.46875 149.496094 53.980469 150.019531 53.488281 C 150.027344 53.316406 150.203125 53.152344 150.203125 53.152344 C 150.378906 52.988281 150.558594 52.652344 150.90625 52.492188 C 151.261719 51.992188 151.785156 51.671875 152.292969 51.6875 C 152.808594 51.535156 153.488281 51.554688 154.175781 51.410156 L 156.226562 51.136719 C 158.957031 50.886719 161.691406 50.632812 164.585938 50.558594 L 172.757812 50.488281 C 175.484375 50.410156 178.210938 50.328125 180.9375 50.25 C 186.386719 50.089844 191.839844 49.929688 197.457031 49.941406 L 200.007812 50.027344 C 204.410156 50.683594 208.992188 51.175781 213.574219 51.5 Z M 213.574219 51.5"/></g></g></g><g clip-path="url(#d)"><path fill="#FED2AA" d="M 167.839844 289.058594 L 167.839844 276.921875 L 163.464844 274.164062 C 155.390625 269.242188 147.167969 266.9375 137.699219 267.589844 C 124.296875 268.488281 109.96875 275.273438 97.640625 280.386719 C 81.199219 287.207031 65.109375 292.96875 46.972656 292.640625 L 39.078125 292.464844 L 13.554688 142.414062 C 9.144531 142.988281 4.644531 143.222656 0 142.988281 L 30.945312 306.269531 C 82.445312 307.160156 120.777344 262.933594 167.839844 289.058594 Z M 168.464844 266.011719 C 126.734375 240.273438 92.84375 283.910156 47.183594 283.019531 L 19.78125 122.066406 C 72.414062 124.664062 106.722656 57.953125 168.464844 98.480469 Z M 177.523438 266.011719 L 177.523438 98.480469 C 239.265625 57.953125 273.609375 124.664062 326.179688 122.066406 L 298.773438 283.019531 C 253.175781 283.910156 219.25 240.273438 177.523438 266.011719 Z M 178.082031 289.058594 C 225.207031 262.933594 263.507812 307.160156 315.066406 306.269531 L 345.953125 142.988281 C 341.339844 143.222656 336.816406 142.988281 332.40625 142.414062 L 306.941406 292.464844 L 298.984375 292.640625 C 280.910156 292.96875 264.761719 287.207031 248.347656 280.386719 C 235.996094 275.273438 221.664062 268.488281 208.265625 267.589844 C 198.792969 266.9375 190.59375 269.242188 182.523438 274.164062 L 178.082031 276.921875 Z M 178.082031 289.058594" fill-rule="evenodd"/></g><g clip-path="url(#e)"><path fill="#FC997C" d="M 294.773438 112.859375 C 294.890625 112.230469 295.921875 111.828125 296.4375 112.285156 C 297.414062 113.203125 298.847656 115.957031 298.902344 113.089844 C 299.304688 93.40625 309.570312 69.136719 311.867188 70.855469 C 313.300781 71.945312 311.636719 71.71875 312.152344 77.113281 C 312.554688 81.644531 318.574219 57.714844 327.351562 46.585938 C 328.671875 44.921875 329.816406 46.066406 329.300781 47.558594 C 328.496094 49.742188 328.671875 52.609375 328.957031 52.550781 C 329.585938 52.496094 351.324219 22.199219 377.992188 13.648438 C 380.460938 12.84375 378.796875 17.433594 378.683594 22.3125 C 378.222656 36.828125 373.40625 46.929688 367.097656 58.808594 C 362.625 67.300781 360.617188 65.921875 361.992188 67.644531 C 363.023438 68.90625 363.023438 69.539062 362.105469 70.628906 C 345.820312 89.332031 339.96875 88.300781 341.859375 92.03125 C 343.296875 94.898438 325 114.351562 322.820312 117.050781 C 321.730469 118.425781 324.882812 118.367188 323.335938 122.097656 C 318.804688 133.117188 310.890625 140.460938 303.894531 143.101562 C 299.707031 144.707031 294.429688 115.386719 294.773438 112.859375 Z M 294.773438 112.859375"/></g><g clip-path="url(#f)"><path fill="#FED2AA" d="M 298.558594 169.035156 C 294.542969 167.71875 290.53125 170.125 286.746094 171.847656 C 280.953125 174.546875 280.089844 170.472656 272.863281 171.964844 C 269.308594 172.710938 269.996094 173.226562 265.410156 173.28125 C 256.976562 173.398438 259.214844 163.816406 253.710938 165.878906 C 248.316406 167.890625 245.621094 172.710938 244.589844 171.390625 C 243.328125 169.839844 256.117188 157.386719 260.074219 165.59375 C 263 171.617188 263.746094 171.734375 274.242188 169.324219 C 280.320312 167.945312 280.835938 172.535156 287.316406 169.152344 C 300.394531 162.496094 302.746094 170.414062 298.558594 169.035156 Z M 298.558594 169.035156"/></g><path fill="#B6774E" d="M 304.121094 142.355469 C 300.96875 154.40625 301.253906 164.960938 300.222656 167.660156 C 297.242188 175.75 292.59375 139.3125 323.449219 87.097656 C 337.214844 63.800781 338.765625 62.824219 367.613281 30.746094 C 375.414062 32.46875 323.507812 67.699219 304.121094 142.355469 Z M 304.121094 142.355469"/><g fill="#DBB59C"><g><g><path d="M 15.003906 -5.1875 C 15.003906 -5.1875 13.527344 -2.007812 8.464844 -2.007812 C 5.042969 -2.007812 2.910156 -4.242188 2.910156 -7.175781 C 2.910156 -10.042969 5.042969 -12.320312 8.445312 -12.320312 C 11.683594 -12.320312 13.875 -11.253906 13.875 -9.53125 L 16.191406 -9.285156 C 16.191406 -12.542969 12.320312 -14.554688 8.527344 -14.554688 C 4.425781 -14.554688 0.613281 -11.230469 0.613281 -7.175781 C 0.613281 -3.074219 4.425781 0.226562 8.527344 0.226562 C 14.308594 0.226562 15.988281 -4.570312 15.988281 -4.570312 Z M 15.003906 -5.1875" transform="translate(186.927 168.973)"/></g></g></g><g fill="#DBB59C"><g><g><path d="M 13.199219 -2.746094 L 11.027344 -5.554688 C 13.160156 -5.699219 14.820312 -7.316406 14.820312 -10.1875 C 14.820312 -12.484375 12.953125 -14.347656 10.679688 -14.347656 L 0.59375 -14.347656 C 0.59375 -14.347656 1.597656 -13.691406 1.597656 -12.320312 L 1.597656 -1.824219 C 1.597656 -0.574219 0.59375 0 0.59375 0 L 4.917969 0 C 4.917969 0 3.914062 -0.574219 3.914062 -1.824219 L 3.914062 -5.535156 L 8.425781 -5.535156 L 11.046875 -2.132812 C 12.09375 -0.777344 14.820312 0 16.519531 0 L 16.519531 -1.148438 C 15.207031 -1.148438 14 -1.722656 13.199219 -2.746094 Z M 3.914062 -7.769531 L 3.914062 -10.660156 C 3.914062 -11.4375 4.570312 -12.09375 5.371094 -12.09375 L 9.570312 -12.09375 C 11.4375 -12.09375 12.832031 -10.988281 12.441406 -9.449219 C 12.195312 -8.445312 10.78125 -7.769531 9.367188 -7.769531 Z M 3.914062 -7.769531" transform="translate(203.406 168.973)"/></g></g></g><g fill="#DBB59C"><g><g><path d="M 3.914062 -12.503906 C 3.914062 -13.875 4.917969 -14.347656 4.917969 -14.347656 L 0.59375 -14.347656 C 0.59375 -14.347656 1.597656 -13.734375 1.597656 -12.503906 L 1.597656 -1.824219 C 1.597656 -0.59375 0.59375 0 0.59375 0 L 4.917969 0 C 4.917969 0 3.914062 -0.59375 3.914062 -1.824219 Z M 3.914062 -12.503906" transform="translate(219.824 168.973)"/></g></g></g><g fill="#DBB59C"><g><g><path d="M 15.515625 -14.265625 L 15.515625 -14.347656 L 1.046875 -14.347656 L 1.046875 -14.265625 L 0.328125 -9.734375 C 0.328125 -9.734375 2.296875 -12.09375 3.035156 -12.09375 L 6.109375 -12.09375 C 6.722656 -11.765625 7.113281 -11.5 7.113281 -10.78125 L 7.113281 -1.824219 C 7.113281 -0.53125 6.109375 0 6.109375 0 L 10.453125 0 C 10.453125 0 9.429688 -0.59375 9.429688 -1.824219 L 9.429688 -10.78125 C 9.429688 -11.476562 9.816406 -11.765625 10.453125 -12.09375 L 13.507812 -12.09375 C 14.246094 -12.09375 16.234375 -9.734375 16.234375 -9.734375 Z M 15.515625 -14.265625" transform="translate(225.01 168.973)"/></g></g></g><g fill="#DBB59C"><g><g><path d="M 3.914062 -12.503906 C 3.914062 -13.875 4.917969 -14.347656 4.917969 -14.347656 L 0.59375 -14.347656 C 0.59375 -14.347656 1.597656 -13.734375 1.597656 -12.503906 L 1.597656 -1.824219 C 1.597656 -0.59375 0.59375 0 0.59375 0 L 4.917969 0 C 4.917969 0 3.914062 -0.59375 3.914062 -1.824219 Z M 3.914062 -12.503906" transform="translate(241.263 168.973)"/></g></g></g><g fill="#DBB59C"><g><g><path d="M 16.519531 -7.152344 C 16.519531 -11.621094 12.667969 -14.53125 8.589844 -14.53125 C 4.507812 -14.53125 0.65625 -11.746094 0.65625 -7.152344 C 0.65625 -2.582031 4.507812 0.226562 8.589844 0.226562 C 9.652344 0.226562 10.085938 0.757812 10.660156 1.414062 C 11.335938 2.171875 12.175781 3.117188 14.226562 3.117188 L 14.226562 1.96875 C 12.894531 1.96875 12.320312 0.449219 11.765625 -0.390625 C 14.472656 -1.457031 16.519531 -3.894531 16.519531 -7.152344 Z M 8.589844 -2.007812 C 5.164062 -2.007812 2.953125 -4.488281 2.953125 -7.152344 C 2.953125 -10.003906 5.164062 -12.320312 8.589844 -12.320312 C 11.992188 -12.320312 14.226562 -10.085938 14.226562 -7.152344 C 14.226562 -4.242188 11.992188 -2.007812 8.589844 -2.007812 Z M 8.589844 -2.007812" transform="translate(246.448 168.973)"/></g></g></g><g fill="#DBB59C"><g><g><path d="M 12.050781 -14.347656 C 12.050781 -14.347656 13.078125 -13.835938 13.078125 -12.503906 L 13.078125 -6.496094 C 13.078125 -3.074219 11.683594 -2.007812 8.402344 -2.007812 C 5.144531 -2.007812 3.730469 -3.074219 3.730469 -6.496094 L 3.730469 -12.503906 C 3.730469 -13.710938 4.734375 -14.347656 4.734375 -14.347656 L 0.410156 -14.347656 C 0.410156 -14.347656 1.414062 -13.816406 1.414062 -12.503906 L 1.414062 -6.210938 C 1.414062 -1.128906 4.835938 0.226562 8.402344 0.226562 C 11.949219 0.226562 15.394531 -1.128906 15.394531 -6.210938 L 15.371094 -12.503906 C 15.371094 -13.835938 16.398438 -14.347656 16.398438 -14.347656 Z M 12.050781 -14.347656" transform="translate(263.317 168.973)"/></g></g></g><g fill="#DBB59C"><g><g><path d="M 11.191406 -2.234375 L 5.390625 -2.234375 C 4.613281 -2.234375 3.957031 -2.871094 3.957031 -3.667969 L 3.957031 -6.167969 L 8.363281 -6.167969 C 9.183594 -6.167969 10.269531 -5.515625 10.269531 -5.515625 L 10.269531 -9.019531 C 10.269531 -9.019531 9.121094 -8.425781 8.363281 -8.425781 L 3.957031 -8.425781 L 3.957031 -10.636719 C 3.957031 -11.4375 4.613281 -12.09375 5.410156 -12.09375 L 10.679688 -12.09375 C 11.417969 -12.09375 13.628906 -9.734375 13.628906 -9.734375 L 12.484375 -14.328125 L 0.636719 -14.328125 C 0.636719 -14.328125 1.640625 -13.609375 1.640625 -12.503906 L 1.640625 -1.867188 C 1.640625 -0.59375 0.636719 0.0195312 0.636719 0.0195312 L 13.199219 0.0195312 L 14.121094 -4.960938 C 14.121094 -4.960938 11.910156 -2.234375 11.191406 -2.234375 Z M 11.191406 -2.234375" transform="translate(279.816 168.973)"/></g></g></g><path transform="matrix(.38434 0 0 .38434 162.055 150.198)" fill="none" d="M 101.440864 32.5161 C 101.440864 32.5161 97.599098 40.778946 84.437493 40.778946 C 75.534353 40.778946 69.985136 34.955317 69.985136 27.332765 C 69.985136 19.872828 75.534353 13.947565 84.386676 13.947565 C 92.812136 13.947565 98.513805 16.722174 98.513805 21.194071 L 104.540702 21.844528 C 104.540702 13.358088 94.458607 8.134099 84.589944 8.134099 C 73.928535 8.134099 64.009055 16.772991 64.009055 27.332765 C 64.009055 38.004337 73.928535 46.582249 84.589944 46.582249 C 99.631779 46.582249 104.002042 34.111754 104.002042 34.111754 Z M 139.624765 38.8479 L 133.973914 31.550577 C 139.523131 31.174531 143.832414 26.966883 143.832414 19.486619 C 143.832414 13.530866 138.994634 8.67276 133.069371 8.67276 L 106.827467 8.67276 C 106.827467 8.67276 109.439462 10.380211 109.439462 13.947565 L 109.439462 41.246463 C 109.439462 44.498751 106.827467 46.002935 106.827467 46.002935 L 118.078353 46.002935 C 118.078353 46.002935 115.466359 44.498751 115.466359 41.246463 L 115.466359 31.601394 L 127.194925 31.601394 L 134.034894 40.453717 C 136.748522 43.970254 143.832414 46.002935 148.263657 46.002935 L 148.263657 43.014894 C 144.848754 43.014894 141.708263 41.520874 139.624765 38.8479 Z M 115.466359 25.787928 L 115.466359 18.267011 C 115.466359 16.234331 117.17381 14.526879 119.257308 14.526879 L 130.193128 14.526879 C 135.041071 14.526879 138.669405 17.423449 137.653065 21.417665 C 137.012771 24.019496 133.323456 25.787928 129.654468 25.787928 Z M 158.183137 13.459722 C 158.183137 9.892368 160.795131 8.67276 160.795131 8.67276 L 149.544245 8.67276 C 149.544245 8.67276 152.146076 10.268414 152.146076 13.459722 L 152.146076 41.246463 C 152.146076 44.447934 149.544245 46.002935 149.544245 46.002935 L 160.795131 46.002935 C 160.795131 46.002935 158.183137 44.447934 158.183137 41.246463 Z M 201.865438 8.876028 L 201.865438 8.67276 L 164.210034 8.67276 L 164.210034 8.876028 L 162.350132 20.665574 C 162.350132 20.665574 167.462323 14.526879 169.383206 14.526879 L 177.391967 14.526879 C 178.977457 15.390768 179.993797 16.08188 179.993797 17.951945 L 179.993797 41.246463 C 179.993797 44.620712 177.391967 46.002935 177.391967 46.002935 L 188.683506 46.002935 C 188.683506 46.002935 186.020695 44.447934 186.020695 41.246463 L 186.020695 17.951945 C 186.020695 16.132697 187.037035 15.390768 188.683506 14.526879 L 196.631286 14.526879 C 198.562333 14.526879 203.725341 20.665574 203.725341 20.665574 Z M 213.959887 13.459722 C 213.959887 9.892368 216.582044 8.67276 216.582044 8.67276 L 205.331158 8.67276 C 205.331158 8.67276 207.932989 10.268414 207.932989 13.459722 L 207.932989 41.246463 C 207.932989 44.447934 205.331158 46.002935 205.331158 46.002935 L 216.582044 46.002935 C 216.582044 46.002935 213.959887 44.447934 213.959887 41.246463 Z M 260.254182 27.383582 C 260.254182 15.766814 250.222904 8.184916 239.612313 8.184916 C 229.001721 8.184916 218.980607 15.441585 218.980607 27.383582 C 218.980607 39.284926 229.001721 46.582249 239.612313 46.582249 C 242.386922 46.582249 243.504896 47.974635 244.998916 49.682086 C 246.757184 51.653786 248.952479 54.113329 254.288265 54.113329 L 254.288265 51.115126 C 250.812382 51.115126 249.328525 47.171726 247.885322 44.986594 C 254.92856 42.211986 260.254182 35.870023 260.254182 27.383582 Z M 239.612313 40.778946 C 230.709173 40.778946 224.956687 34.325186 224.956687 27.383582 C 224.956687 19.974462 230.709173 13.947565 239.612313 13.947565 C 248.464636 13.947565 254.288265 19.761031 254.288265 27.383582 C 254.288265 34.955317 248.464636 40.778946 239.612313 40.778946 Z M 292.51282 8.67276 C 292.51282 8.67276 295.175631 10.004165 295.175631 13.459722 L 295.175631 29.101197 C 295.175631 38.004337 291.55746 40.778946 283.020202 40.778946 C 274.543925 40.778946 270.85461 38.004337 270.85461 29.101197 L 270.85461 13.459722 C 270.85461 10.329394 273.476768 8.67276 273.476768 8.67276 L 262.225882 8.67276 C 262.225882 8.67276 264.84804 10.054982 264.84804 13.459722 L 264.84804 29.843126 C 264.84804 43.065711 273.75118 46.582249 283.020202 46.582249 C 292.248571 46.582249 301.212692 43.065711 301.212692 29.843126 L 301.161875 13.459722 C 301.161875 10.004165 303.824686 8.67276 303.824686 8.67276 Z M 333.196917 40.189469 L 318.114429 40.189469 C 316.091912 40.189469 314.384461 38.542998 314.384461 36.4595 L 314.384461 29.94476 L 325.848778 29.94476 C 327.983092 29.94476 330.808518 31.652211 330.808518 31.652211 L 330.808518 22.53564 C 330.808518 22.53564 327.820478 24.09064 325.848778 24.09064 L 314.384461 24.09064 L 314.384461 18.317828 C 314.384461 16.234331 316.091912 14.526879 318.165246 14.526879 L 331.875675 14.526879 C 333.786395 14.526879 339.559207 20.665574 339.559207 20.665574 L 336.561003 8.723577 L 305.745569 8.723577 C 305.745569 8.723577 308.357563 10.583479 308.357563 13.459722 L 308.357563 41.144829 C 308.357563 44.447934 305.745569 46.053752 305.745569 46.053752 L 338.431069 46.053752 L 340.829632 33.095414 C 340.829632 33.095414 335.077147 40.189469 333.196917 40.189469 Z M 333.196917 40.189469" stroke="#B6774E" stroke-width="2.167"/></svg>