<svg xmlns="http://www.w3.org/2000/svg" xmlns:xlink="http://www.w3.org/1999/xlink" width="375" zoomAndPan="magnify" viewBox="0 0 375 374.999991" height="374.999991" preserveAspectRatio="xMidYMid meet" version="1.0"><defs><g/><clipPath id="id1"><path d="M 50 4 L 369 4 L 369 308 L 50 308 Z M 50 4 " clip-rule="nonzero"/></clipPath><clipPath id="id2"><path d="M 358.269531 316.054688 L 49.894531 305.847656 L 60.039062 -0.738281 L 368.417969 9.46875 Z M 358.269531 316.054688 " clip-rule="nonzero"/></clipPath><clipPath id="id3"><path d="M 358.269531 316.054688 L 49.894531 305.847656 L 60.039062 -0.738281 L 368.417969 9.46875 Z M 358.269531 316.054688 " clip-rule="nonzero"/></clipPath><clipPath id="id4"><path d="M 0 42 L 374.921875 42 L 374.921875 283 L 0 283 Z M 0 42 " clip-rule="nonzero"/></clipPath><clipPath id="id5"><path d="M 278 0 L 363.300781 0 L 363.300781 130 L 278 130 Z M 278 0 " clip-rule="nonzero"/></clipPath><clipPath id="id6"><path d="M 228.300781 149 L 285 149 L 285 159.75 L 228.300781 159.75 Z M 228.300781 149 " clip-rule="nonzero"/></clipPath></defs><g clip-path="url(#id1)"><g clip-path="url(#id2)"><g clip-path="url(#id3)"><path fill="rgb(61.569214%, 59.21936%, 76.858521%)" d="M 231.515625 6.046875 L 241.273438 6.738281 C 244.585938 7.035156 247.71875 7.136719 251.027344 7.429688 L 251.214844 7.4375 L 253.425781 7.511719 L 262.628906 8.183594 C 265.9375 8.480469 269.066406 8.765625 272.195312 9.054688 C 278.078125 9.621094 284.148438 10.191406 290.226562 10.578125 C 294.457031 10.902344 298.691406 11.226562 302.925781 11.550781 L 307.894531 11.902344 C 311.757812 12.214844 315.621094 12.527344 319.488281 12.839844 C 323.351562 13.152344 326.847656 13.453125 330.527344 13.757812 C 333.46875 14.039062 336.601562 14.144531 339.550781 14.242188 C 342.5 14.339844 345.082031 14.425781 348.03125 14.523438 C 350.980469 14.621094 353.738281 14.894531 356.6875 14.992188 L 360.917969 15.320312 C 361.289062 15.332031 361.839844 15.347656 362.210938 15.359375 L 362.394531 15.367188 C 363.316406 15.398438 364.054688 15.421875 364.789062 15.445312 C 365.34375 15.464844 365.710938 15.476562 366.265625 15.496094 C 367.359375 15.902344 368.066406 16.847656 368.027344 17.957031 C 367.800781 19.242188 367.207031 20.515625 366.433594 21.597656 C 365.65625 22.683594 365.074219 23.585938 364.300781 24.667969 C 361.59375 28.460938 358.703125 32.058594 355.996094 35.851562 C 355.414062 36.753906 354.828125 37.660156 354.238281 38.75 C 354.039062 39.296875 353.839844 39.660156 353.636719 40.207031 C 353.433594 40.753906 353.226562 41.488281 353.207031 42.042969 C 353.191406 42.59375 352.976562 43.511719 352.949219 44.25 C 352.914062 45.359375 352.871094 46.648438 353.019531 47.761719 C 353.289062 50.730469 353.566406 53.507812 353.660156 56.285156 C 353.746094 59.242188 353.457031 62.375 352.992188 65.316406 C 352.710938 68.261719 351.875 71.191406 351.039062 74.121094 C 349.84375 76.851562 348.472656 79.210938 346.734375 81.554688 C 345.191406 83.535156 343.664062 85.148438 341.765625 86.75 C 339.867188 88.347656 337.96875 89.949219 336.078125 91.363281 L 336.269531 91.1875 C 333.988281 93.144531 331.894531 95.105469 329.976562 97.261719 C 328.828125 98.515625 327.679688 99.773438 326.710938 101.21875 C 326.324219 101.757812 325.929688 102.484375 325.542969 103.027344 C 324.949219 104.300781 324.347656 105.757812 324.117188 107.046875 C 323.902344 107.960938 323.875 108.886719 323.84375 109.808594 C 323.8125 110.730469 323.78125 111.652344 323.75 112.578125 C 323.738281 112.945312 323.71875 113.5 323.886719 114.058594 C 324.035156 115.171875 324.550781 116.296875 324.699219 117.410156 C 324.847656 118.527344 325.351562 120.019531 325.667969 121.507812 C 326.316406 124.300781 326.585938 127.269531 326.304688 130.214844 C 326.023438 133.164062 325.378906 135.914062 324.363281 138.652344 C 323.769531 139.925781 323.167969 141.382812 322.386719 142.652344 C 321.605469 143.917969 320.832031 145 320.054688 146.269531 C 318.105469 149.34375 315.800781 152.042969 313.136719 154.539062 C 311.804688 155.789062 310.476562 156.855469 309.144531 158.101562 C 307.8125 159.351562 306.851562 160.429688 305.703125 161.683594 C 305.128906 162.40625 304.550781 163.125 303.964844 164.03125 C 303.578125 164.570312 303.1875 165.296875 302.792969 166.023438 C 302.40625 166.566406 302.199219 167.296875 301.988281 168.03125 C 301.78125 168.761719 301.570312 169.492188 301.363281 170.226562 C 301.152344 170.957031 301.140625 171.328125 301.128906 171.695312 C 301.117188 172.066406 301.085938 172.988281 301.070312 173.542969 C 301.050781 174.097656 301.222656 174.472656 301.210938 174.839844 C 301.199219 175.210938 301.371094 175.585938 301.535156 176.144531 C 301.703125 176.703125 301.875 177.078125 302.222656 177.644531 C 303.792969 180.46875 305.5625 182.746094 306.582031 185.367188 C 307.601562 187.988281 308.246094 190.78125 308.332031 193.738281 C 308.421875 196.699219 307.953125 199.640625 307.117188 202.570312 C 306.285156 205.496094 305.269531 208.234375 303.894531 210.777344 C 303.101562 212.414062 301.941406 214.039062 300.964844 215.667969 C 299.804688 217.292969 298.460938 218.910156 297.121094 220.347656 C 295.597656 221.773438 294.082031 223.015625 292.5625 224.261719 C 291.050781 225.320312 289.726562 226.382812 288.390625 227.632812 C 287.25 228.703125 286.105469 229.773438 284.957031 231.03125 C 284.195312 231.746094 283.613281 232.648438 283.035156 233.367188 C 282.644531 234.09375 282.257812 234.636719 281.863281 235.363281 C 281.476562 235.902344 281.265625 236.636719 281.066406 237.183594 C 280.863281 237.730469 280.660156 238.277344 280.636719 239.019531 C 280.609375 239.757812 280.605469 239.941406 280.40625 240.304688 C 280.210938 240.667969 280.378906 241.226562 280.359375 241.78125 C 280.339844 242.332031 280.519531 242.523438 280.507812 242.894531 C 280.496094 243.261719 280.660156 243.824219 280.832031 244.199219 C 281.34375 245.507812 281.675781 246.628906 282.183594 247.9375 C 282.695312 249.25 283.207031 250.558594 283.714844 251.871094 L 283.710938 252.054688 C 284.761719 253.75 285.625 255.445312 286.488281 257.320312 C 286.824219 258.253906 287.15625 259.375 287.496094 260.308594 C 287.648438 261.238281 287.800781 262.167969 287.957031 263.097656 C 288.074219 265.132812 288.191406 267.167969 287.9375 269.195312 C 287.492188 271.582031 287.050781 273.785156 286.054688 275.96875 C 285.636719 277.433594 285.027344 279.074219 284.242188 280.527344 L 284.050781 280.707031 C 284.039062 281.074219 284.035156 281.261719 283.835938 281.625 C 281.871094 285.253906 279.542969 288.6875 276.855469 291.925781 C 274.183594 294.609375 271.484375 298.03125 268.617188 301.074219 C 268.238281 301.433594 268.046875 301.609375 267.664062 301.96875 C 267.285156 302.324219 266.910156 302.496094 266.535156 302.667969 C 266.148438 303.210938 265.589844 303.378906 265.03125 303.542969 C 264.101562 303.699219 262.996094 303.660156 261.886719 303.808594 L 258.734375 304.257812 C 256.695312 304.5625 254.660156 304.679688 252.625 304.796875 C 248.191406 305.019531 243.582031 304.867188 239.152344 304.90625 C 234.722656 304.941406 229.925781 304.96875 225.304688 305.1875 L 225.675781 305.199219 C 216.246094 305.808594 206.820312 306.238281 197.585938 306.484375 C 192.605469 306.503906 187.980469 306.90625 183.359375 307.125 C 178.738281 307.339844 174.117188 307.558594 169.503906 307.589844 C 164.890625 307.621094 160.277344 307.652344 155.675781 307.316406 C 151.074219 306.980469 146.289062 306.636719 141.679688 306.484375 C 136.710938 306.132812 131.539062 306.332031 126.554688 306.351562 C 122.308594 306.394531 117.878906 306.433594 113.640625 306.292969 C 111.0625 306.207031 108.664062 306.128906 106.085938 306.042969 C 103.503906 305.957031 101.285156 306.070312 98.890625 305.992188 C 94.09375 306.015625 89.480469 306.050781 84.6875 305.890625 C 79.894531 305.730469 75.273438 305.949219 70.660156 305.980469 L 63.652344 305.933594 C 61.253906 305.855469 58.851562 305.960938 56.457031 305.878906 C 55.53125 306.035156 54.429688 305.8125 53.519531 305.414062 C 53.160156 305.214844 52.800781 304.835938 52.625 304.644531 C 52.253906 304.632812 52.078125 304.441406 51.714844 304.246094 C 50.441406 303.648438 50.121094 302.160156 50.71875 300.886719 C 52.480469 297.804688 54.421875 294.910156 56.367188 291.832031 C 57.929688 289.296875 59.496094 286.578125 60.875 283.851562 C 61.277344 282.941406 61.867188 281.851562 62.085938 280.75 C 62.300781 279.835938 62.515625 278.917969 62.910156 278.191406 C 63.128906 277.089844 63.355469 275.804688 63.398438 274.511719 C 63.417969 273.957031 63.4375 273.40625 63.453125 272.851562 C 63.300781 271.921875 63.324219 271.183594 63.171875 270.253906 C 62.847656 268.949219 62.515625 267.832031 62.1875 266.527344 C 61.84375 265.777344 61.507812 264.839844 61.160156 264.089844 C 59.949219 261.648438 58.554688 259.199219 57.535156 256.578125 C 57.03125 255.085938 56.527344 253.589844 56.390625 252.105469 C 56.074219 250.617188 56.128906 248.957031 56.175781 247.480469 C 56.226562 246.003906 56.457031 244.53125 56.875 243.070312 C 57.109375 241.597656 57.527344 240.132812 58.128906 238.675781 C 59.152344 235.566406 60.535156 232.839844 62.285156 230.128906 C 63.832031 227.960938 65.367188 226.164062 67.09375 224.1875 C 68.820312 222.214844 70.921875 220.066406 72.839844 217.914062 C 73.410156 217.375 73.988281 216.65625 74.5625 215.9375 C 75.140625 215.214844 75.71875 214.496094 76.300781 213.59375 C 77.277344 211.960938 78.25 210.515625 79.230469 208.699219 C 79.828125 207.425781 80.421875 206.152344 80.835938 204.871094 C 81.246094 203.59375 81.65625 202.3125 81.882812 201.027344 C 82.113281 199.742188 82.136719 199.003906 82.355469 197.902344 C 82.578125 196.800781 82.410156 196.238281 82.441406 195.316406 C 82.292969 194.203125 82.332031 193.097656 82 191.976562 C 81.691406 190.117188 81.199219 188.253906 80.707031 186.390625 C 80.222656 184.339844 79.914062 182.484375 79.796875 180.449219 C 79.679688 178.410156 79.570312 176.191406 79.820312 174.164062 C 80.074219 172.140625 80.316406 170.300781 81.117188 168.480469 C 81.535156 167.015625 82.128906 165.742188 82.726562 164.46875 C 83.320312 163.195312 84.101562 161.925781 84.882812 160.660156 C 85.84375 159.398438 86.625 158.128906 87.773438 156.875 C 88.738281 155.613281 89.703125 154.351562 90.84375 153.28125 C 92.578125 151.121094 94.488281 149.152344 96.410156 146.8125 C 98.332031 144.472656 100.0625 142.3125 101.617188 139.964844 C 101.816406 139.601562 102.195312 139.242188 102.398438 138.695312 C 102.976562 137.976562 103.558594 137.070312 103.953125 136.34375 C 104.34375 135.617188 104.933594 134.53125 105.519531 133.625 C 106.101562 132.71875 106.519531 131.257812 107.113281 129.980469 C 107.328125 129.066406 107.542969 128.148438 107.753906 127.417969 C 107.960938 126.683594 107.992188 125.761719 108.023438 124.839844 C 108.066406 123.546875 108.109375 122.253906 107.96875 120.957031 C 107.867188 118.367188 107.402344 115.765625 107.308594 112.988281 C 107.214844 110.214844 107.300781 107.628906 107.761719 104.875 C 108.050781 101.742188 108.890625 98.628906 110.277344 95.71875 C 110.878906 94.257812 111.660156 92.992188 112.441406 91.722656 C 113.40625 90.460938 114.367188 89.199219 115.328125 88.125 C 119.160156 83.816406 123.699219 80.457031 127.53125 76.148438 C 128.300781 75.25 129.066406 74.351562 129.652344 73.445312 C 130.621094 72 131.40625 70.546875 132.199219 68.910156 C 132.59375 68.183594 132.800781 67.453125 133.011719 66.71875 C 133.21875 65.988281 133.625 64.894531 133.84375 63.792969 C 133.863281 63.238281 134.066406 62.691406 134.085938 62.136719 C 134.109375 61.398438 134.128906 60.84375 134.152344 60.105469 C 133.996094 59.175781 134.027344 58.253906 133.867188 57.511719 C 133.042969 54.527344 132.589844 51.554688 132.324219 48.40625 C 132.378906 46.742188 132.246094 45.261719 132.484375 43.605469 C 132.53125 42.128906 132.773438 40.472656 133.003906 39.003906 C 133.214844 38.269531 133.421875 37.539062 133.632812 36.804688 C 134.03125 35.894531 134.238281 35.164062 134.632812 34.4375 C 135.417969 32.984375 136.199219 31.71875 136.976562 30.449219 C 138.90625 27.925781 140.828125 25.589844 143.121094 23.261719 C 146.171875 20.222656 149.398438 17.558594 152.800781 15.082031 C 154.503906 13.84375 156.199219 12.792969 157.898438 11.554688 L 160.730469 9.617188 C 161.296875 9.265625 162.050781 8.738281 162.625 8.203125 C 162.628906 8.015625 162.820312 7.839844 162.820312 7.839844 C 163.011719 7.660156 163.207031 7.296875 163.582031 7.125 C 163.96875 6.582031 164.535156 6.230469 165.085938 6.25 C 165.644531 6.082031 166.382812 6.109375 167.125 5.949219 L 169.351562 5.652344 C 172.3125 5.378906 175.273438 5.109375 178.410156 5.027344 L 187.269531 4.953125 C 190.226562 4.863281 193.179688 4.777344 196.136719 4.691406 C 202.046875 4.515625 207.957031 4.34375 214.042969 4.359375 L 216.808594 4.449219 C 221.582031 5.164062 226.546875 5.699219 231.515625 6.046875 Z M 231.515625 6.046875 " fill-opacity="1" fill-rule="nonzero"/></g></g></g><g clip-path="url(#id4)"><path fill="rgb(99.609375%, 82.348633%, 66.668701%)" d="M 181.9375 263.5625 L 181.9375 250.402344 L 177.195312 247.414062 C 168.445312 242.082031 159.53125 239.582031 149.265625 240.289062 C 134.738281 241.265625 119.207031 248.621094 105.84375 254.160156 C 88.019531 261.554688 70.582031 267.800781 50.917969 267.445312 L 42.359375 267.253906 L 14.691406 104.601562 C 9.914062 105.21875 5.035156 105.472656 0 105.21875 L 33.542969 282.21875 C 89.371094 283.183594 130.921875 235.242188 181.9375 263.5625 Z M 182.617188 238.578125 C 137.378906 210.679688 100.640625 257.980469 51.144531 257.011719 L 21.441406 82.542969 C 78.496094 85.355469 115.6875 13.042969 182.617188 56.976562 Z M 192.4375 238.578125 L 192.4375 56.976562 C 259.367188 13.042969 296.59375 85.355469 353.578125 82.542969 L 323.871094 257.011719 C 274.445312 257.980469 237.667969 210.679688 192.4375 238.578125 Z M 193.042969 263.5625 C 244.125 235.242188 285.644531 283.183594 341.535156 282.21875 L 375.011719 105.21875 C 370.011719 105.472656 365.109375 105.21875 360.332031 104.601562 L 332.726562 267.253906 L 324.101562 267.445312 C 304.507812 267.800781 287.003906 261.554688 269.207031 254.160156 C 255.820312 248.621094 240.285156 241.265625 225.757812 240.289062 C 215.492188 239.582031 206.605469 242.082031 197.855469 247.414062 L 193.042969 250.402344 Z M 193.042969 263.5625 " fill-opacity="1" fill-rule="evenodd"/></g><g clip-path="url(#id5)"><path fill="rgb(98.81897%, 59.999084%, 48.629761%)" d="M 278.683594 99.328125 C 278.796875 98.695312 279.828125 98.292969 280.34375 98.753906 C 281.320312 99.671875 282.753906 102.425781 282.8125 99.558594 C 283.210938 79.875 293.480469 55.601562 295.773438 57.324219 C 297.207031 58.414062 295.542969 58.183594 296.058594 63.578125 C 296.460938 68.113281 302.484375 44.183594 311.257812 33.050781 C 312.578125 31.386719 313.726562 32.535156 313.207031 34.027344 C 312.40625 36.207031 312.578125 39.078125 312.863281 39.019531 C 313.496094 38.960938 335.234375 8.664062 361.902344 0.113281 C 364.367188 -0.6875 362.703125 3.902344 362.589844 8.78125 C 362.132812 23.296875 357.3125 33.394531 351.003906 45.273438 C 346.53125 53.765625 344.523438 52.390625 345.898438 54.109375 C 346.933594 55.375 346.933594 56.003906 346.015625 57.09375 C 329.726562 75.800781 323.875 74.769531 325.769531 78.496094 C 327.203125 81.367188 308.90625 100.820312 306.726562 103.515625 C 305.636719 104.894531 308.792969 104.835938 307.242188 108.566406 C 302.714844 119.582031 294.796875 126.929688 287.800781 129.566406 C 283.613281 131.175781 278.335938 101.851562 278.683594 99.328125 Z M 278.683594 99.328125 " fill-opacity="1" fill-rule="nonzero"/></g><g clip-path="url(#id6)"><path fill="rgb(99.609375%, 82.348633%, 66.668701%)" d="M 282.46875 155.503906 C 278.453125 154.183594 274.4375 156.59375 270.652344 158.316406 C 264.859375 161.011719 264 156.9375 256.773438 158.429688 C 253.21875 159.175781 253.90625 159.691406 249.316406 159.75 C 240.886719 159.863281 243.121094 150.28125 237.617188 152.347656 C 232.226562 154.355469 229.53125 159.175781 228.496094 157.855469 C 227.234375 156.308594 240.027344 143.855469 243.984375 152.0625 C 246.90625 158.085938 247.652344 158.199219 258.148438 155.789062 C 264.230469 154.414062 264.746094 159.003906 271.226562 155.617188 C 284.300781 148.960938 286.652344 156.882812 282.46875 155.503906 Z M 282.46875 155.503906 " fill-opacity="1" fill-rule="nonzero"/></g><path fill="rgb(71.369934%, 46.669006%, 30.589294%)" d="M 288.03125 128.820312 C 284.875 140.871094 285.164062 151.429688 284.128906 154.125 C 281.148438 162.21875 276.503906 125.78125 307.359375 73.5625 C 321.125 50.265625 322.671875 49.289062 351.519531 17.214844 C 359.320312 18.9375 307.414062 54.167969 288.03125 128.820312 Z M 288.03125 128.820312 " fill-opacity="1" fill-rule="nonzero"/><g fill="rgb(94.509888%, 80.778503%, 68.238831%)" fill-opacity="1"><g transform="translate(52.598303, 350.960017)"><g><path d="M 33.144531 -11.269531 C 31.023438 -8.792969 27.890625 -7.277344 24.203125 -7.277344 C 17.078125 -7.277344 12.027344 -13.085938 12.027344 -20.210938 C 12.027344 -27.335938 17.078125 -33.144531 24.203125 -33.144531 C 27.890625 -33.144531 31.023438 -31.628906 33.144531 -29.15625 L 38.855469 -34.8125 C 35.117188 -38.550781 29.914062 -40.875 24.203125 -40.875 C 12.785156 -40.875 3.535156 -31.628906 3.535156 -20.210938 C 3.535156 -8.792969 12.785156 0.453125 24.203125 0.453125 C 29.914062 0.453125 35.117188 -1.871094 38.855469 -5.609375 Z M 33.144531 -11.269531 "/></g></g></g><g fill="rgb(94.509888%, 80.778503%, 68.238831%)" fill-opacity="1"><g transform="translate(94.984229, 350.960017)"><g><path d="M 35.117188 -25.265625 C 35.117188 -33.652344 31.277344 -40.421875 20.96875 -40.421875 L 3.535156 -40.421875 L 3.535156 0 L 11.117188 0 L 11.117188 -10.054688 L 20.96875 -10.054688 C 21.878906 -10.054688 22.738281 -10.105469 23.546875 -10.207031 L 27.183594 0 L 35.117188 0 L 30.519531 -12.933594 C 33.851562 -15.714844 35.117188 -20.210938 35.117188 -25.265625 Z M 11.117188 -17.632812 L 11.117188 -32.894531 L 20.96875 -32.894531 C 24.707031 -32.894531 25.71875 -31.628906 26.070312 -31.226562 C 27.03125 -30.011719 27.539062 -27.890625 27.539062 -25.265625 C 27.539062 -22.484375 27.03125 -20.363281 26.121094 -19.25 C 25.265625 -18.140625 23.546875 -17.632812 20.96875 -17.632812 Z M 11.117188 -17.632812 "/></g></g></g><g fill="rgb(94.509888%, 80.778503%, 68.238831%)" fill-opacity="1"><g transform="translate(133.631714, 350.960017)"><g><path d="M 3.535156 -40.421875 L 11.117188 -40.421875 L 11.117188 -0.152344 L 3.535156 -0.152344 Z M 3.535156 -40.421875 "/></g></g></g><g fill="rgb(94.509888%, 80.778503%, 68.238831%)" fill-opacity="1"><g transform="translate(148.282394, 350.960017)"><g><path d="M 33.902344 -40.421875 L 3.535156 -40.421875 L 3.535156 -32.894531 L 14.957031 -32.894531 L 14.957031 0 L 22.484375 0 L 22.484375 -32.894531 L 33.902344 -32.894531 Z M 33.902344 -40.421875 "/></g></g></g><g fill="rgb(94.509888%, 80.778503%, 68.238831%)" fill-opacity="1"><g transform="translate(185.7174, 350.960017)"><g><path d="M 3.535156 -40.421875 L 11.117188 -40.421875 L 11.117188 -0.152344 L 3.535156 -0.152344 Z M 3.535156 -40.421875 "/></g></g></g><g fill="rgb(94.509888%, 80.778503%, 68.238831%)" fill-opacity="1"><g transform="translate(200.36808, 350.960017)"><g><path d="M 44.867188 -20.261719 C 44.867188 -31.679688 35.621094 -40.925781 24.203125 -40.925781 C 12.785156 -40.925781 3.535156 -31.679688 3.535156 -20.261719 C 3.535156 -8.84375 12.785156 0.402344 24.203125 0.402344 C 27.082031 0.402344 29.761719 -0.152344 32.238281 -1.210938 L 36.429688 4.144531 L 42.390625 -0.453125 L 38.550781 -5.40625 C 42.441406 -9.144531 44.867188 -14.398438 44.867188 -20.261719 Z M 24.203125 -7.328125 C 17.078125 -7.328125 12.027344 -13.136719 12.027344 -20.261719 C 12.027344 -27.386719 17.078125 -33.195312 24.203125 -33.195312 C 31.378906 -33.195312 36.429688 -27.386719 36.429688 -20.261719 C 36.429688 -17.027344 35.371094 -14.046875 33.601562 -11.773438 L 28.699219 -18.089844 L 22.738281 -13.441406 L 27.234375 -7.679688 C 26.273438 -7.425781 25.265625 -7.328125 24.203125 -7.328125 Z M 24.203125 -7.328125 "/></g></g></g><g fill="rgb(94.509888%, 80.778503%, 68.238831%)" fill-opacity="1"><g transform="translate(248.76584, 350.960017)"><g><path d="M 26.78125 -40.421875 L 26.78125 -13.996094 C 26.78125 -9.902344 23.496094 -6.617188 19.453125 -6.617188 L 18.441406 -6.617188 C 14.398438 -6.617188 11.117188 -9.902344 11.117188 -13.996094 L 11.117188 -40.421875 L 3.535156 -40.421875 L 3.535156 -13.996094 C 3.535156 -5.8125 10.257812 0.910156 18.441406 0.910156 L 19.453125 0.910156 C 27.636719 0.910156 34.308594 -5.8125 34.308594 -13.996094 L 34.308594 -40.421875 Z M 26.78125 -40.421875 "/></g></g></g><g fill="rgb(94.509888%, 80.778503%, 68.238831%)" fill-opacity="1"><g transform="translate(286.605017, 350.960017)"><g><path d="M 26.980469 -32.945312 L 26.980469 -40.472656 L 3.535156 -40.472656 L 3.535156 0 L 26.980469 0 L 26.980469 -7.527344 L 11.117188 -7.527344 L 11.117188 -16.523438 L 20.566406 -16.523438 L 20.566406 -24.050781 L 11.117188 -24.050781 L 11.117188 -32.945312 Z M 26.980469 -32.945312 "/></g></g></g><path stroke-linecap="butt" transform="matrix(0.75, 0, 0, 0.75, 55.945314, 306.719833)" fill="none" stroke-linejoin="miter" d="M 44.19271 41.982933 C 41.364585 45.2746 37.187501 47.295433 32.270834 47.295433 C 22.765625 47.295433 16.036458 39.550641 16.036458 30.061057 C 16.036458 20.55064 22.765625 12.805848 32.270834 12.805848 C 37.187501 12.805848 41.364585 14.826681 44.19271 18.133973 L 51.812502 10.581889 C 46.828127 5.602722 39.885418 2.493347 32.270834 2.493347 C 17.041666 2.493347 4.718749 14.826681 4.718749 30.061057 C 4.718749 45.2746 17.041666 57.607934 32.270834 57.607934 C 39.885418 57.607934 46.828127 54.498559 51.812502 49.514184 Z M 103.343755 23.316265 C 103.343755 12.128765 98.208338 3.102722 84.473962 3.102722 L 61.234378 3.102722 L 61.234378 56.998559 L 71.333337 56.998559 L 71.333337 43.597517 L 84.473962 43.597517 C 85.692712 43.597517 86.828129 43.529808 87.911463 43.3996 L 92.76563 56.998559 L 103.343755 56.998559 L 97.208338 39.748558 C 101.645839 36.045433 103.343755 30.061057 103.343755 23.316265 Z M 71.333337 33.477724 L 71.333337 13.149598 L 84.473962 13.149598 C 89.458338 13.149598 90.807296 14.826681 91.286463 15.368348 C 92.552088 16.982932 93.223963 19.811057 93.223963 23.316265 C 93.223963 27.014182 92.552088 29.842307 91.348963 31.326682 C 90.197921 32.821474 87.911463 33.477724 84.473962 33.477724 Z M 122.86459 56.800642 L 112.765631 56.800642 L 112.765631 3.102722 L 122.86459 3.102722 Z M 172.776052 3.102722 L 132.296882 3.102722 L 132.296882 13.149598 L 147.515633 13.149598 L 147.515633 56.998559 L 157.562509 56.998559 L 157.562509 13.149598 L 172.776052 13.149598 Z M 192.312511 56.800642 L 182.213552 56.800642 L 182.213552 3.102722 L 192.312511 3.102722 Z M 256.848974 29.993349 C 256.848974 14.764181 244.526056 2.425639 229.296889 2.425639 C 214.067721 2.425639 201.744803 14.764181 201.744803 29.993349 C 201.744803 45.206892 214.067721 57.540226 229.296889 57.540226 C 233.130222 57.540226 236.713556 56.800642 240.005223 55.389184 L 245.598973 62.524601 L 253.557307 56.389184 L 248.427098 49.795434 C 253.625015 44.811058 256.848974 37.80585 256.848974 29.993349 Z M 229.296889 47.227725 C 219.79168 47.227725 213.062512 39.482933 213.062512 29.993349 C 213.062512 20.48814 219.79168 12.73814 229.296889 12.73814 C 238.869806 12.73814 245.598973 20.48814 245.598973 29.993349 C 245.598973 34.300641 244.182306 38.264183 241.828139 41.311058 L 235.302097 32.889183 L 227.338555 39.071475 L 233.343764 46.753767 C 232.062514 47.097517 230.713555 47.227725 229.296889 47.227725 Z M 297.265643 3.102722 L 297.265643 38.331891 C 297.265643 43.790225 292.890643 48.165225 287.494809 48.165225 L 286.145851 48.165225 C 280.750017 48.165225 276.375017 43.790225 276.375017 38.331891 L 276.375017 3.102722 L 266.276058 3.102722 L 266.276058 38.331891 C 266.276058 49.253767 275.223975 58.217309 286.145851 58.217309 L 287.494809 58.217309 C 298.416685 58.217309 307.296894 49.253767 307.296894 38.331891 L 307.296894 3.102722 Z M 347.979188 13.066265 L 347.979188 3.035014 L 316.729186 3.035014 L 316.729186 56.998559 L 347.979188 56.998559 L 347.979188 46.967308 L 326.828145 46.967308 L 326.828145 34.977724 L 339.427104 34.977724 L 339.427104 24.92564 L 326.828145 24.92564 L 326.828145 13.066265 Z M 347.979188 13.066265 " stroke="rgb(80.778503%, 52.549744%, 38.038635%)" stroke-width="3.158414" stroke-opacity="1" stroke-miterlimit="4"/></svg>